<svg width="508" height="113" viewBox="0 0 508 113" fill="none" xmlns="http://www.w3.org/2000/svg">
<rect width="508" height="113" fill="#E5E5E5"/>
<g id="homepage">
<rect x="-213" y="-202" width="1366" height="5161" fill="white"/>
<g id="Hero">
<rect id="Rectangle" opacity="0.2" x="-213" y="-202" width="1366" height="768" fill="url(#paint0_linear)"/>
<path id="New Automation Tool for Your Home" d="M13.336 38V36.656L10.328 36.208C8.472 35.952 8.088 35.44 8.088 33.52V8.624L31.448 38H35.096V6C35.096 4.08 35.48 3.696 37.336 3.312L39.704 2.864V1.52H27.288V2.864L30.296 3.312C32.152 3.568 32.536 4.08 32.536 6V27.76L11.544 1.52H0.92V2.864L3.288 3.312C5.144 3.696 5.528 4.08 5.528 6V33.52C5.528 35.44 5.144 35.824 3.288 36.208L0.92 36.656V38H13.336ZM57.689 38.64C60.249 38.64 65.049 36.464 67.673 33.328L67.097 32.496C65.305 33.328 63.321 33.776 61.209 33.776C55.961 33.776 52.633 30.512 52.633 23.536V22.96H67.289L67.545 22.32C67.289 17.456 63.897 14.192 58.201 14.192C51.865 14.192 45.785 18.352 45.785 26.608C45.785 34.416 51.033 38.64 57.689 38.64ZM57.561 15.856C59.801 15.856 61.529 17.968 61.529 20.464C61.529 21.232 61.273 21.424 60.569 21.424H52.761C53.209 18.16 54.745 15.856 57.561 15.856ZM82.39 38.96H84.63L90.262 24.688L95.894 38.96H98.134L106.774 17.712C107.094 17.008 107.414 16.624 108.182 16.368L109.59 15.92V14.832H101.078V15.92L103.254 16.496C104.406 16.816 104.662 17.2 104.342 18.032L99.734 30.384L94.87 17.968C94.422 16.88 94.87 16.304 95.894 16.176L97.686 15.92V14.832H84.886V15.92L85.974 16.24C86.806 16.496 87.126 16.752 87.446 17.648L89.174 22L86.038 30.32L80.982 17.328C80.726 16.688 80.918 16.304 81.494 16.176L82.966 15.92V14.832H71.126V15.92L72.214 16.176C73.174 16.432 73.43 16.88 73.814 17.776L82.39 38.96ZM139.492 38V36.656L136.612 36.144C135.268 35.888 134.948 35.504 135.332 34.544L138.916 25.2H151.588L155.364 34.48C155.748 35.44 155.556 35.824 154.212 36.08L151.012 36.656V38H166.692V36.656L165.412 36.336C164.26 36.016 163.748 35.568 163.236 34.352L149.54 0.943996H146.084L132.452 34.352C131.94 35.632 131.556 35.952 130.212 36.336L129.06 36.656V38H139.492ZM139.684 23.152L145.06 9.008L150.756 23.152H139.684ZM180.622 38.64C182.606 38.64 185.87 36.912 187.982 35.184V38.64L198.158 35.76V34.736L196.238 34.48C195.022 34.288 194.702 33.84 194.702 32.496V20.272C194.702 18.352 194.702 16.752 195.022 14.64L194.318 14.192L184.526 17.2V18.032L186.638 18.864C187.79 19.312 187.982 19.76 187.982 21.104V33.456C186.51 34.288 185.166 34.672 183.822 34.672C181.582 34.672 179.982 33.392 179.982 29.36V20.272C179.982 18.352 180.046 16.752 180.43 14.64L179.726 14.192L170.702 17.2V18.032L171.854 18.672C172.942 19.248 173.262 19.568 173.262 20.912V30.704C173.262 36.336 176.526 38.64 180.622 38.64ZM211.797 38.64C213.845 38.64 217.941 36.976 220.629 34.416L220.053 33.456C218.709 34.096 217.749 34.352 216.341 34.352C213.461 34.352 211.925 32.816 211.925 29.872V18.48H220.245V14.832H211.925V9.776H210.965L201.941 17.456V18.48H205.205V32.944C205.205 36.336 207.893 38.64 211.797 38.64ZM237.632 38.64C244.352 38.64 250.688 33.84 250.688 26.096C250.688 17.776 244.288 14.192 237.824 14.192C231.296 14.192 224.768 18.992 224.768 26.736C224.768 34.992 231.104 38.64 237.632 38.64ZM237.888 36.912C234.112 36.912 232.064 32.752 232.064 25.776C232.064 19.376 233.856 15.92 237.568 15.92C241.344 15.92 243.392 20.08 243.392 27.056C243.392 33.52 241.6 36.912 237.888 36.912ZM268.935 38V36.912L267.335 36.464C266.119 36.144 265.799 35.76 265.799 34.288V19.376C267.271 18.544 268.615 18.16 269.959 18.16C272.199 18.16 273.799 19.44 273.799 23.472V34.288C273.799 35.76 273.479 36.144 272.263 36.464L270.663 36.912V38H283.655V36.912L282.055 36.464C280.839 36.144 280.519 35.76 280.519 34.288V22.128C280.519 21.168 280.455 20.272 280.263 19.504C281.799 18.544 283.271 18.16 284.679 18.16C286.919 18.16 288.519 19.44 288.519 23.472V34.288C288.519 35.76 288.199 36.144 286.983 36.464L285.383 36.912V38H298.375V36.912L296.775 36.464C295.559 36.144 295.239 35.76 295.239 34.288V22.128C295.239 16.496 292.039 14.192 287.879 14.192C285.703 14.192 281.863 16.304 279.815 18.288C278.663 15.408 276.167 14.192 273.159 14.192C271.175 14.192 267.911 15.92 265.799 17.648C265.863 16.688 265.991 15.792 266.119 14.64L265.415 14.192L256.583 17.2V18.096L257.735 18.736C258.823 19.312 259.079 19.632 259.079 20.976V34.288C259.079 35.76 258.759 36.144 257.543 36.464L255.943 36.912V38H268.935ZM308.452 38.64C310.372 38.64 313.124 37.232 315.748 35.376C316.132 37.424 317.348 38.64 319.524 38.64C320.868 38.64 323.364 37.36 326.372 35.184L325.988 34.288C325.284 34.544 324.772 34.736 324.132 34.736C323.172 34.736 322.404 34.096 322.404 32.24V20.208C322.404 16.688 318.564 14.192 314.916 14.192C309.86 14.192 303.076 19.056 303.076 22.128C303.076 23.344 303.908 24.112 304.868 24.112C305.508 24.112 306.98 23.792 307.94 23.344C307.684 22.192 307.364 20.976 307.364 20.272C307.364 19.184 307.748 18.48 308.452 17.968C309.092 17.52 309.86 17.328 310.948 17.328C313.508 17.328 315.684 18.928 315.684 22V25.776L308.708 28.208C304.612 29.616 303.076 31.216 303.076 33.712C303.076 37.04 305.572 38.64 308.452 38.64ZM309.732 31.856C309.732 30.064 310.692 29.168 312.932 28.208L315.684 27.056V34.224C314.724 34.672 313.892 34.8 312.868 34.8C310.756 34.8 309.732 33.712 309.732 31.856ZM339.599 38.64C341.647 38.64 345.743 36.976 348.431 34.416L347.855 33.456C346.511 34.096 345.551 34.352 344.143 34.352C341.263 34.352 339.727 32.816 339.727 29.872V18.48H348.047V14.832H339.727V9.776H338.767L329.743 17.456V18.48H333.007V32.944C333.007 36.336 335.695 38.64 339.599 38.64ZM359.227 7.536C361.083 7.536 362.619 6.064 362.619 4.08C362.619 2.16 361.083 0.559998 359.227 0.559998C357.179 0.559998 355.707 2.16 355.707 4.08C355.707 6.064 357.179 7.536 359.227 7.536ZM365.115 38V36.912L363.515 36.464C362.299 36.144 361.979 35.76 361.979 34.288V20.272C361.979 18.352 361.979 16.752 362.299 14.64L361.595 14.192L352.763 17.2V18.096L353.915 18.736C355.003 19.312 355.259 19.632 355.259 20.976V34.288C355.259 35.76 354.939 36.144 353.723 36.464L352.123 36.912V38H365.115ZM382.995 38.64C389.715 38.64 396.051 33.84 396.051 26.096C396.051 17.776 389.651 14.192 383.187 14.192C376.659 14.192 370.131 18.992 370.131 26.736C370.131 34.992 376.467 38.64 382.995 38.64ZM383.251 36.912C379.475 36.912 377.427 32.752 377.427 25.776C377.427 19.376 379.219 15.92 382.931 15.92C386.707 15.92 388.755 20.08 388.755 27.056C388.755 33.52 386.963 36.912 383.251 36.912ZM414.297 38V36.912L412.697 36.464C411.481 36.144 411.161 35.76 411.161 34.288V19.376C412.633 18.544 413.977 18.16 415.321 18.16C417.753 18.16 419.545 19.44 419.545 23.472V34.288C419.545 35.76 419.226 36.144 418.01 36.464L416.41 36.912V38H429.402V36.912L427.802 36.464C426.586 36.144 426.265 35.76 426.265 34.288V22.128C426.265 16.496 423.001 14.192 418.521 14.192C416.538 14.192 413.273 15.92 411.161 17.648C411.225 16.688 411.353 15.792 411.481 14.64L410.777 14.192L401.945 17.2V18.096L403.097 18.736C404.185 19.312 404.441 19.632 404.441 20.976V34.288C404.441 35.76 404.121 36.144 402.905 36.464L401.305 36.912V38H414.297ZM24.792 112V110.656L22.424 110.208C20.568 109.824 20.184 109.44 20.184 107.52V77.568H26.712C28.76 77.568 29.784 77.952 30.488 80.384L31.768 84.672H32.984V75.008L32.408 74.816C31.576 75.2 30.488 75.52 28.44 75.52H4.696C2.712 75.52 1.56 75.2 0.728 74.816L0.216 75.008V84.672H1.368L2.712 80.384C3.48 77.952 4.44 77.568 6.488 77.568H12.952V107.52C12.952 109.44 12.568 109.824 10.712 110.208L8.344 110.656V112H24.792ZM47.335 112.64C54.055 112.64 60.391 107.84 60.391 100.096C60.391 91.776 53.991 88.192 47.527 88.192C40.999 88.192 34.471 92.992 34.471 100.736C34.471 108.992 40.807 112.64 47.335 112.64ZM47.591 110.912C43.815 110.912 41.767 106.752 41.767 99.776C41.767 93.376 43.559 89.92 47.271 89.92C51.047 89.92 53.095 94.08 53.095 101.056C53.095 107.52 51.303 110.912 47.591 110.912ZM78.9575 112.64C85.6775 112.64 92.0135 107.84 92.0135 100.096C92.0135 91.776 85.6135 88.192 79.1495 88.192C72.6215 88.192 66.0935 92.992 66.0935 100.736C66.0935 108.992 72.4295 112.64 78.9575 112.64ZM79.2135 110.912C75.4375 110.912 73.3895 106.752 73.3895 99.776C73.3895 93.376 75.1815 89.92 78.8935 89.92C82.6695 89.92 84.7175 94.08 84.7175 101.056C84.7175 107.52 82.9255 110.912 79.2135 110.912ZM110.068 112V110.912L108.468 110.464C107.252 110.144 106.932 109.76 106.932 108.288V74.56C106.932 72.64 106.932 71.04 107.252 68.928L106.548 68.48L97.716 71.488V72.384L98.804 73.024C99.892 73.664 100.212 73.92 100.212 75.264V108.288C100.212 109.76 99.892 110.144 98.676 110.464L97.076 110.912V112H110.068ZM145.415 112V110.912L142.535 110.272C141.319 110.016 140.999 109.76 140.999 108.288V92.48H148.359V88.832H140.999V79.36C140.999 72.448 142.535 70.4 144.711 70.4C146.183 70.4 147.719 71.104 151.175 74.368H151.623C152.967 72.704 153.671 71.744 153.671 71.168C153.671 69.376 149.959 68.48 147.207 68.48C141.639 68.48 134.279 71.36 134.279 86.592V89.088L130.823 91.392V92.48H134.279V108.288C134.279 109.76 133.959 110.144 132.743 110.464L131.143 110.912V112H145.415ZM164.573 112.64C171.293 112.64 177.629 107.84 177.629 100.096C177.629 91.776 171.229 88.192 164.765 88.192C158.237 88.192 151.709 92.992 151.709 100.736C151.709 108.992 158.045 112.64 164.573 112.64ZM164.829 110.912C161.053 110.912 159.005 106.752 159.005 99.776C159.005 93.376 160.797 89.92 164.509 89.92C168.285 89.92 170.333 94.08 170.333 101.056C170.333 107.52 168.541 110.912 164.829 110.912ZM197.155 112V110.912L194.275 110.272C193.059 110.016 192.739 109.76 192.739 108.288V94.656C193.827 93.888 194.915 93.632 196.323 93.632C197.347 93.632 198.883 94.016 200.547 94.592L200.867 94.464C201.507 92.224 201.827 90.752 201.827 90.112C201.827 88.896 200.803 88.192 199.715 88.192C197.859 88.192 195.043 90.368 192.739 93.248C192.739 91.712 192.803 90.368 193.059 88.64L192.355 88.192L183.523 91.2V92.096L184.675 92.736C185.763 93.312 186.019 93.696 186.019 94.976V108.288C186.019 109.76 185.699 110.144 184.483 110.464L182.883 110.912V112H197.155ZM247.408 112V110.656L245.04 110.208C243.184 109.824 242.8 109.44 242.8 107.52V96.832L253.424 79.68C254.448 78.016 254.832 77.568 256.112 77.184L257.264 76.864V75.52H247.024V76.864L249.392 77.312C250.992 77.632 251.312 78.4 250.608 79.616L242.224 94.4L233.648 79.104C233.2 78.272 233.584 77.76 234.928 77.504L238.128 76.928V75.52H221.168V76.864L223.088 77.248C224.432 77.504 224.624 78.016 225.264 79.168L235.568 96.704V107.52C235.568 109.44 235.184 109.824 233.328 110.208L230.96 110.656V112H247.408ZM269.563 112.64C276.283 112.64 282.619 107.84 282.619 100.096C282.619 91.776 276.219 88.192 269.755 88.192C263.227 88.192 256.699 92.992 256.699 100.736C256.699 108.992 263.035 112.64 269.563 112.64ZM269.819 110.912C266.043 110.912 263.995 106.752 263.995 99.776C263.995 93.376 265.787 89.92 269.499 89.92C273.275 89.92 275.323 94.08 275.323 101.056C275.323 107.52 273.531 110.912 269.819 110.912ZM297.857 112.64C299.841 112.64 303.105 110.912 305.217 109.184V112.64L315.393 109.76V108.736L313.473 108.48C312.257 108.288 311.937 107.84 311.937 106.496V94.272C311.937 92.352 311.937 90.752 312.257 88.64L311.553 88.192L301.761 91.2V92.032L303.873 92.864C305.025 93.312 305.217 93.76 305.217 95.104V107.456C303.745 108.288 302.401 108.672 301.057 108.672C298.817 108.672 297.217 107.392 297.217 103.36V94.272C297.217 92.352 297.281 90.752 297.665 88.64L296.961 88.192L287.937 91.2V92.032L289.089 92.672C290.177 93.248 290.497 93.568 290.497 94.912V104.704C290.497 110.336 293.761 112.64 297.857 112.64ZM333.768 112V110.912L330.888 110.272C329.672 110.016 329.352 109.76 329.352 108.288V94.656C330.44 93.888 331.528 93.632 332.936 93.632C333.96 93.632 335.496 94.016 337.16 94.592L337.48 94.464C338.12 92.224 338.44 90.752 338.44 90.112C338.44 88.896 337.416 88.192 336.328 88.192C334.472 88.192 331.656 90.368 329.352 93.248C329.352 91.712 329.416 90.368 329.672 88.64L328.968 88.192L320.136 91.2V92.096L321.288 92.736C322.376 93.312 322.632 93.696 322.632 94.976V108.288C322.632 109.76 322.312 110.144 321.096 110.464L319.496 110.912V112H333.768ZM376.34 112V110.656L373.972 110.208C372.116 109.824 371.732 109.44 371.732 107.52V94.016H389.14V107.52C389.14 109.44 388.756 109.824 386.9 110.208L384.532 110.656V112H400.98V110.656L398.612 110.208C396.756 109.824 396.372 109.44 396.372 107.52V80C396.372 78.08 396.756 77.696 398.612 77.312L400.98 76.864V75.52H384.532V76.864L386.9 77.312C388.756 77.696 389.14 78.08 389.14 80V91.968H371.732V80C371.732 78.08 372.116 77.696 373.972 77.312L376.34 76.864V75.52H359.892V76.864L362.26 77.312C364.116 77.696 364.5 78.08 364.5 80V107.52C364.5 109.44 364.116 109.824 362.26 110.208L359.892 110.656V112H376.34ZM420.175 112.64C426.895 112.64 433.231 107.84 433.231 100.096C433.231 91.776 426.831 88.192 420.367 88.192C413.839 88.192 407.311 92.992 407.311 100.736C407.311 108.992 413.647 112.64 420.175 112.64ZM420.431 110.912C416.655 110.912 414.607 106.752 414.607 99.776C414.607 93.376 416.399 89.92 420.111 89.92C423.887 89.92 425.935 94.08 425.935 101.056C425.935 107.52 424.143 110.912 420.431 110.912ZM451.477 112V110.912L449.877 110.464C448.661 110.144 448.341 109.76 448.341 108.288V93.376C449.813 92.544 451.157 92.16 452.501 92.16C454.741 92.16 456.341 93.44 456.341 97.472V108.288C456.341 109.76 456.021 110.144 454.805 110.464L453.205 110.912V112H466.197V110.912L464.597 110.464C463.381 110.144 463.061 109.76 463.061 108.288V96.128C463.061 95.168 462.997 94.272 462.805 93.504C464.341 92.544 465.813 92.16 467.221 92.16C469.461 92.16 471.061 93.44 471.061 97.472V108.288C471.061 109.76 470.741 110.144 469.525 110.464L467.925 110.912V112H480.917V110.912L479.317 110.464C478.101 110.144 477.781 109.76 477.781 108.288V96.128C477.781 90.496 474.581 88.192 470.421 88.192C468.245 88.192 464.405 90.304 462.357 92.288C461.205 89.408 458.709 88.192 455.701 88.192C453.717 88.192 450.453 89.92 448.341 91.648C448.405 90.688 448.533 89.792 448.661 88.64L447.957 88.192L439.125 91.2V92.096L440.277 92.736C441.365 93.312 441.621 93.632 441.621 94.976V108.288C441.621 109.76 441.301 110.144 440.085 110.464L438.485 110.912V112H451.477ZM497.586 112.64C500.146 112.64 504.946 110.464 507.57 107.328L506.994 106.496C505.202 107.328 503.218 107.776 501.106 107.776C495.858 107.776 492.53 104.512 492.53 97.536V96.96H507.186L507.442 96.32C507.186 91.456 503.794 88.192 498.098 88.192C491.762 88.192 485.682 92.352 485.682 100.608C485.682 108.416 490.93 112.64 497.586 112.64ZM497.458 89.856C499.698 89.856 501.426 91.968 501.426 94.464C501.426 95.232 501.17 95.424 500.466 95.424H492.658C493.106 92.16 494.642 89.856 497.458 89.856Z" fill="#1F3F68"/>
<g id="illustration">
<g id="shadown_illustration">
<path id="Vector" opacity="0.4" d="M1066.61 -37.5898C921.832 -106.483 857.969 81.9092 758.138 112.906C658.394 158.253 562.215 105.176 502.828 150.674C408.694 222.794 450.01 348.963 510.274 402.05C596.694 478.18 750.272 450.78 909.012 368.462C1107.89 265.329 1193.55 22.8174 1066.61 -37.5898Z" fill="#98C3E8"/>
</g>
<g id="ilustration_bg">
<mask id="mask0" mask-type="alpha" maskUnits="userSpaceOnUse" x="462" y="-49" width="648" height="490">
<path id="Vector_2" d="M1048.96 -36.0557C908.39 -98.131 852.042 84.4792 757.141 117.024C662.694 163.339 569.118 115.084 513.364 160.416C424.988 232.272 467.861 352.217 527.006 401.486C611.824 472.139 758.342 441.544 908.39 358.093C1096.38 253.539 1172.22 18.3739 1048.96 -36.0557Z" fill="#98C3E8"/>
</mask>
<g mask="url(#mask0)">
<rect id="Rectangle_2" x="356.917" y="-129.598" width="805.162" height="681.485" fill="url(#paint1_linear)"/>
<path id="Vector 2" d="M458.509 87.4672C532.336 124.697 614.998 228.904 614.998 278.662C614.998 339.869 485.221 433.678 425.696 486.893L933.655 519.705C915.566 438.726 869.894 258.7 897.688 218.716C933.655 166.974 1079.21 179.594 1160.82 189.059L1182.9 -41.2576C1143.15 -24.6412 1054.18 23.1048 1005.59 10.4847C960.615 -1.19692 874.34 -51.5641 837.742 -83.5349" stroke="white" stroke-opacity="0.2" stroke-width="15"/>
<g id="Group 2">
</g>
</g>
</g>
</g>
</g>
</g>
<defs>
<linearGradient id="paint0_linear" x1="470" y1="566" x2="470" y2="327" gradientUnits="userSpaceOnUse">
<stop offset="0.283925" stop-color="#98C3E8"/>
<stop offset="1" stop-color="#98C3E8" stop-opacity="0"/>
</linearGradient>
<linearGradient id="paint1_linear" x1="817.616" y1="-175.319" x2="779.792" y2="495.507" gradientUnits="userSpaceOnUse">
<stop stop-color="#D1ECFF"/>
<stop offset="1" stop-color="#1070B1"/>
</linearGradient>
</defs>
</svg>
