<svg width="940" height="417" viewBox="0 0 940 417" fill="none" xmlns="http://www.w3.org/2000/svg">
<rect width="940" height="417" fill="#E5E5E5"/>
<g id="homepage">
<rect x="-213" y="-2490" width="1366" height="5161" fill="white"/>
<g id="our_project">
<g id="Mask Group">
<mask id="mask0" mask-type="alpha" maskUnits="userSpaceOnUse" x="0" y="0" width="940" height="417">
<rect id="Rectangle 2" width="940" height="417" rx="10" fill="#E8E8E8"/>
</mask>
<g mask="url(#mask0)">
<rect id="alberto-castillo-q-mx4mSkK9zeo-unsplash" x="-33" y="-119" width="1005" height="638"/>
<rect id="Rectangle" x="-25" width="982" height="424" fill="url(#paint0_linear)"/>
<g id="Group" opacity="0.6">
<g id="ic_home_48px">
<path id="Vector" d="M45 389V377H53V389H63V373H69L49 355L29 373H35V389H45Z" fill="white"/>
</g>
<circle id="Ellipse" cx="49" cy="373" r="69.5" stroke="white" stroke-width="5"/>
<g id="Group 5">
<g id="Group 4">
<g id="ic_lock_24px">
<path id="Vector_2" d="M77 100H76V98C76 95.24 73.76 93 71 93C68.24 93 66 95.24 66 98V100H65C63.9 100 63 100.9 63 102V112C63 113.1 63.9 114 65 114H77C78.1 114 79 113.1 79 112V102C79 100.9 78.1 100 77 100ZM71 109C69.9 109 69 108.1 69 107C69 105.9 69.9 105 71 105C72.1 105 73 105.9 73 107C73 108.1 72.1 109 71 109ZM74.1 100H67.9V98C67.9 96.29 69.29 94.9 71 94.9C72.71 94.9 74.1 96.29 74.1 98V100Z" fill="white"/>
</g>
<circle id="Ellipse_2" cx="71" cy="104" r="32" stroke="white" stroke-width="2"/>
</g>
<g id="Group_2">
<g id="ic_ac_unit_24px">
<path id="Vector_3" d="M335 190H330.83L334.07 186.76L332.66 185.34L328 190H326V188L330.66 183.34L329.24 181.93L326 185.17V181H324V185.17L320.76 181.93L319.34 183.34L324 188V190H322L317.34 185.34L315.93 186.76L319.17 190H315V192H319.17L315.93 195.24L317.34 196.66L322 192H324V194L319.34 198.66L320.76 200.07L324 196.83V201H326V196.83L329.24 200.07L330.66 198.66L326 194V192H328L332.66 196.66L334.07 195.24L330.83 192H335V190Z" fill="white"/>
</g>
<circle id="Ellipse_3" cx="325" cy="191" r="32" stroke="white" stroke-width="2"/>
</g>
<g id="Group 2">
<g id="Frame">
<path id="Vector_4" d="M152.311 228.896H135.979V239.103H152.311V228.896Z" fill="white"/>
<path id="Vector_5" d="M156.713 230.927L153.108 232.443V235.6L156.713 237.115H158.02V230.927H156.713Z" fill="white"/>
</g>
<circle id="Ellipse_4" cx="147" cy="234" r="32" stroke="white" stroke-width="2"/>
</g>
<g id="Group 3">
<path id="Vector_6" d="M311 355C311 350 307 346 302 346C297 346 293 350 293 355C293 358.1 294.6 360.9 297 362.5V365C297 366.3 297.8 367.4 299 367.8V368C299 369.7 300.3 371 302 371C303.7 371 305 369.7 305 368V367.8C306.2 367.4 307 366.3 307 365V362.5C309.4 360.9 311 358.1 311 355ZM295 355C295 351.1 298.1 348 302 348C305.9 348 309 351.1 309 355C309 358.5 306.4 361.4 303 361.9V359.4L304.7 357.7C305.1 357.3 305.1 356.7 304.7 356.3C304.3 355.9 303.7 355.9 303.3 356.3L302 357.6L300.7 356.3C300.3 355.9 299.7 355.9 299.3 356.3C298.9 356.7 298.9 357.3 299.3 357.7L301 359.4V361.9C297.6 361.4 295 358.5 295 355ZM302 369C301.4 369 301 368.6 301 368H303C303 368.6 302.6 369 302 369ZM305 365C305 365.6 304.6 366 304 366H300C299.4 366 299 365.6 299 365V363.5C299.9 363.8 300.9 364 302 364C303.1 364 304.1 363.8 305 363.5V365Z" fill="white"/>
<circle id="Ellipse_5" cx="302" cy="359" r="32" stroke="white" stroke-width="2"/>
</g>
<g id="Group 4_2">
<path id="Vector_7" d="M56 304L68 136" stroke="white" stroke-width="2" stroke-linecap="round"/>
<path id="Vector 2" d="M119 379L271 368" stroke="white" stroke-width="2" stroke-linecap="round"/>
<path id="Vector 3" d="M89 315L134 263" stroke="white" stroke-width="2" stroke-linecap="round"/>
<path id="Vector 4" d="M113 345.5L303 216" stroke="white" stroke-width="2" stroke-linecap="round"/>
</g>
</g>
</g>
</g>
</g>
<g id="Group_3">
<path id="Smart Home Installation" d="M559.428 79.364C561.444 79.364 563.068 78.86 564.328 77.852C565.588 76.816 566.204 75.444 566.204 73.736C566.204 72.504 565.924 71.496 565.224 70.796C564.748 70.236 564.496 69.928 563.712 69.508C562.956 69.088 562.732 68.948 561.752 68.584C561.276 68.388 560.94 68.276 560.716 68.192L559.568 67.828C558.056 67.352 556.992 66.876 556.376 66.428C555.76 65.98 555.452 65.336 555.452 64.468C555.452 62.676 556.88 61.556 559.008 61.556C561.136 61.556 562.62 62.564 563.46 64.58L565.644 63.32C564.496 60.744 562.116 59.036 559.008 59.036C557.3 59.036 555.844 59.54 554.64 60.548C553.436 61.528 552.848 62.872 552.848 64.58C552.848 66.008 553.436 67.156 554.08 67.856C554.388 68.192 554.864 68.528 555.508 68.864C556.152 69.172 556.712 69.424 557.132 69.592L559.008 70.208C560.66 70.74 561.864 71.216 562.564 71.692C563.264 72.168 563.628 72.868 563.628 73.792C563.628 75.612 562.172 76.816 559.484 76.816C556.768 76.816 555.004 75.64 554.248 73.26L552.008 74.548C553.044 77.544 555.76 79.364 559.428 79.364ZM585.555 64.636C583.595 64.636 582.14 65.42 581.16 67.016C580.291 65.42 578.92 64.636 577.044 64.636C575.224 64.636 573.823 65.392 572.871 66.876V65H570.435V79H572.871V71.216C572.871 68.388 574.411 66.96 576.456 66.96C578.276 66.96 579.424 68.22 579.424 70.376V79H581.86V71.216C581.86 68.332 583.204 66.96 585.303 66.96C587.18 66.96 588.384 68.22 588.384 70.376V79H590.82V70.292C590.82 66.82 588.692 64.636 585.555 64.636ZM607.189 67.408C605.985 65.56 604.221 64.636 601.897 64.636C599.937 64.636 598.257 65.364 596.885 66.792C595.513 68.22 594.813 69.956 594.813 72C594.813 74.044 595.513 75.808 596.885 77.236C598.257 78.664 599.937 79.364 601.897 79.364C604.221 79.364 605.985 78.44 607.189 76.592V79H609.625V65H607.189V67.408ZM602.205 77.012C600.805 77.012 599.629 76.536 598.677 75.584C597.725 74.604 597.249 73.428 597.249 72C597.249 70.572 597.725 69.396 598.677 68.444C599.629 67.464 600.805 66.988 602.205 66.988C603.633 66.988 604.809 67.464 605.761 68.444C606.713 69.396 607.189 70.572 607.189 72C607.189 73.428 606.713 74.604 605.761 75.584C604.809 76.536 603.633 77.012 602.205 77.012ZM617.152 65H614.716V79H617.152V71.58C617.152 70.04 617.572 68.948 618.44 68.248C619.308 67.548 620.316 67.24 621.52 67.296V64.748C619.42 64.748 617.964 65.616 617.152 67.352V65ZM633.248 65H629.524V61.08L627.088 61.808V65H624.316V67.352H627.088V74.94C627.088 78.412 628.992 79.56 633.248 79V76.816C630.756 76.928 629.524 77.096 629.524 74.94V67.352H633.248V65ZM658.39 67.716H648.87V59.4H646.266V79H648.87V70.18H658.39V79H660.966V59.4H658.39V67.716ZM678.124 77.236C679.552 75.808 680.28 74.072 680.28 72C680.28 69.928 679.552 68.192 678.124 66.764C676.696 65.336 674.932 64.636 672.888 64.636C670.844 64.636 669.08 65.336 667.652 66.764C666.224 68.192 665.524 69.928 665.524 72C665.524 74.072 666.224 75.808 667.652 77.236C669.08 78.664 670.844 79.364 672.888 79.364C674.932 79.364 676.696 78.664 678.124 77.236ZM672.888 76.984C671.516 76.984 670.34 76.508 669.388 75.556C668.436 74.604 667.96 73.428 667.96 72C667.96 70.572 668.436 69.396 669.388 68.444C670.34 67.492 671.516 67.016 672.888 67.016C674.288 67.016 675.464 67.492 676.416 68.444C677.368 69.396 677.844 70.572 677.844 72C677.844 73.428 677.368 74.604 676.416 75.556C675.464 76.508 674.288 76.984 672.888 76.984ZM699.672 64.636C697.712 64.636 696.256 65.42 695.276 67.016C694.408 65.42 693.036 64.636 691.16 64.636C689.34 64.636 687.94 65.392 686.988 66.876V65H684.552V79H686.988V71.216C686.988 68.388 688.528 66.96 690.572 66.96C692.392 66.96 693.54 68.22 693.54 70.376V79H695.976V71.216C695.976 68.332 697.32 66.96 699.42 66.96C701.296 66.96 702.5 68.22 702.5 70.376V79H704.936V70.292C704.936 66.82 702.808 64.636 699.672 64.636ZM723.154 73.12C723.21 72.756 723.238 72.392 723.238 72.028C723.238 69.984 722.594 68.248 721.278 66.82C719.99 65.364 718.31 64.636 716.266 64.636C714.11 64.636 712.346 65.336 710.974 66.736C709.602 68.136 708.93 69.9 708.93 72C708.93 74.128 709.63 75.892 711.002 77.292C712.402 78.664 714.222 79.364 716.434 79.364C719.178 79.364 721.222 78.3 722.594 76.2L720.522 75.024C719.682 76.396 718.338 77.068 716.49 77.068C713.83 77.068 711.898 75.612 711.422 73.12H723.154ZM716.266 66.932C718.506 66.932 720.354 68.332 720.774 70.992H711.422C711.842 68.528 713.662 66.932 716.266 66.932ZM736.09 79H738.694V59.4H736.09V79ZM751.018 64.636C748.974 64.636 747.462 65.42 746.482 67.016V65H744.046V79H746.482V71.58C746.482 68.444 748.106 66.96 750.542 66.96C752.698 66.96 754.014 68.276 754.014 70.544V79H756.45V70.404C756.45 66.848 754.294 64.636 751.018 64.636ZM763.351 68.78C763.351 67.576 764.471 66.904 765.843 66.904C767.327 66.904 768.335 67.492 768.839 68.696L770.883 67.548C769.987 65.728 768.111 64.636 765.843 64.636C764.415 64.636 763.239 65.028 762.287 65.812C761.363 66.596 760.887 67.604 760.887 68.808C760.887 71.776 763.743 72.504 765.955 73.092C767.495 73.456 768.727 74.072 768.727 75.164C768.727 76.48 767.551 77.068 765.955 77.068C764.247 77.068 762.931 76.228 762.483 74.884L760.383 76.088C761.195 78.076 763.239 79.364 765.955 79.364C767.495 79.364 768.727 78.972 769.707 78.216C770.687 77.46 771.191 76.424 771.191 75.164C771.219 72.168 768.307 71.356 766.123 70.88C764.583 70.46 763.351 69.872 763.351 68.78ZM782.544 65H778.82V61.08L776.384 61.808V65H773.612V67.352H776.384V74.94C776.384 78.412 778.288 79.56 782.544 79V76.816C780.052 76.928 778.82 77.096 778.82 74.94V67.352H782.544V65ZM797.71 67.408C796.506 65.56 794.742 64.636 792.418 64.636C790.458 64.636 788.778 65.364 787.406 66.792C786.034 68.22 785.334 69.956 785.334 72C785.334 74.044 786.034 75.808 787.406 77.236C788.778 78.664 790.458 79.364 792.418 79.364C794.742 79.364 796.506 78.44 797.71 76.592V79H800.146V65H797.71V67.408ZM792.726 77.012C791.326 77.012 790.15 76.536 789.198 75.584C788.246 74.604 787.77 73.428 787.77 72C787.77 70.572 788.246 69.396 789.198 68.444C790.15 67.464 791.326 66.988 792.726 66.988C794.154 66.988 795.33 67.464 796.282 68.444C797.234 69.396 797.71 70.572 797.71 72C797.71 73.428 797.234 74.604 796.282 75.584C795.33 76.536 794.154 77.012 792.726 77.012ZM807.672 79V58.56H805.236V79H807.672ZM815.225 79V58.56H812.789V79H815.225ZM831.933 67.408C830.729 65.56 828.965 64.636 826.641 64.636C824.681 64.636 823.001 65.364 821.629 66.792C820.257 68.22 819.557 69.956 819.557 72C819.557 74.044 820.257 75.808 821.629 77.236C823.001 78.664 824.681 79.364 826.641 79.364C828.965 79.364 830.729 78.44 831.933 76.592V79H834.369V65H831.933V67.408ZM826.949 77.012C825.549 77.012 824.373 76.536 823.421 75.584C822.469 74.604 821.993 73.428 821.993 72C821.993 70.572 822.469 69.396 823.421 68.444C824.373 67.464 825.549 66.988 826.949 66.988C828.377 66.988 829.553 67.464 830.505 68.444C831.457 69.396 831.933 70.572 831.933 72C831.933 73.428 831.457 74.604 830.505 75.584C829.553 76.536 828.377 77.012 826.949 77.012ZM847.076 65H843.352V61.08L840.916 61.808V65H838.144V67.352H840.916V74.94C840.916 78.412 842.82 79.56 847.076 79V76.816C844.584 76.928 843.352 77.096 843.352 74.94V67.352H847.076V65ZM852.592 62.452C853.488 62.452 854.216 61.724 854.216 60.828C854.216 59.932 853.488 59.176 852.592 59.176C851.668 59.176 850.94 59.932 850.94 60.828C850.94 61.724 851.668 62.452 852.592 62.452ZM853.796 79V65H851.36V79H853.796ZM870.728 77.236C872.156 75.808 872.884 74.072 872.884 72C872.884 69.928 872.156 68.192 870.728 66.764C869.3 65.336 867.536 64.636 865.492 64.636C863.448 64.636 861.684 65.336 860.256 66.764C858.828 68.192 858.128 69.928 858.128 72C858.128 74.072 858.828 75.808 860.256 77.236C861.684 78.664 863.448 79.364 865.492 79.364C867.536 79.364 869.3 78.664 870.728 77.236ZM865.492 76.984C864.12 76.984 862.944 76.508 861.992 75.556C861.04 74.604 860.564 73.428 860.564 72C860.564 70.572 861.04 69.396 861.992 68.444C862.944 67.492 864.12 67.016 865.492 67.016C866.892 67.016 868.068 67.492 869.02 68.444C869.972 69.396 870.448 70.572 870.448 72C870.448 73.428 869.972 74.604 869.02 75.556C868.068 76.508 866.892 76.984 865.492 76.984ZM884.128 64.636C882.084 64.636 880.572 65.42 879.592 67.016V65H877.156V79H879.592V71.58C879.592 68.444 881.216 66.96 883.652 66.96C885.808 66.96 887.124 68.276 887.124 70.544V79H889.56V70.404C889.56 66.848 887.404 64.636 884.128 64.636Z" fill="white"/>
<path id="In Muarakana Housing Estate" opacity="0.8" d="M658.28 129H659.4V117.8H658.28V129ZM666.352 120.808C665.152 120.808 664.256 121.288 663.664 122.248V121H662.608V129H663.664V124.808C663.664 122.776 664.72 121.832 666.256 121.832C667.648 121.832 668.432 122.664 668.432 124.088V129H669.488V124.088C669.488 122.088 668.288 120.808 666.352 120.808ZM686.137 117.8L682.409 124.04L678.681 117.8H677.289V129H678.409V119.496L682.329 126.056H682.489L686.409 119.496V129H687.529V117.8H686.137ZM696.358 125.192C696.358 127.224 695.302 128.168 693.766 128.168C692.374 128.168 691.59 127.336 691.59 125.912V121H690.534V125.912C690.534 127.912 691.734 129.192 693.67 129.192C694.87 129.192 695.766 128.712 696.358 127.752V129H697.414V121H696.358V125.192ZM707.328 122.568C706.592 121.4 705.52 120.808 704.096 120.808C702.96 120.808 701.984 121.208 701.168 122.024C700.368 122.84 699.968 123.832 699.968 125C699.968 126.168 700.368 127.16 701.168 127.976C701.984 128.792 702.96 129.192 704.096 129.192C705.52 129.192 706.592 128.6 707.328 127.432V129H708.384V121H707.328V122.568ZM701.936 127.256C701.328 126.632 701.024 125.88 701.024 125C701.024 124.12 701.328 123.368 701.936 122.76C702.544 122.136 703.296 121.832 704.176 121.832C705.056 121.832 705.808 122.136 706.416 122.76C707.024 123.368 707.328 124.12 707.328 125C707.328 125.88 707.024 126.632 706.416 127.256C705.808 127.864 705.056 128.168 704.176 128.168C703.296 128.168 702.544 127.864 701.936 127.256ZM712.476 121H711.42V129H712.476V124.552C712.476 122.712 713.548 121.896 715.004 121.896V120.872C713.804 120.872 712.972 121.352 712.476 122.328V121ZM723.647 122.568C722.911 121.4 721.839 120.808 720.415 120.808C719.279 120.808 718.303 121.208 717.487 122.024C716.687 122.84 716.287 123.832 716.287 125C716.287 126.168 716.687 127.16 717.487 127.976C718.303 128.792 719.279 129.192 720.415 129.192C721.839 129.192 722.911 128.6 723.647 127.432V129H724.703V121H723.647V122.568ZM718.255 127.256C717.647 126.632 717.343 125.88 717.343 125C717.343 124.12 717.647 123.368 718.255 122.76C718.863 122.136 719.615 121.832 720.495 121.832C721.375 121.832 722.127 122.136 722.735 122.76C723.343 123.368 723.647 124.12 723.647 125C723.647 125.88 723.343 126.632 722.735 127.256C722.127 127.864 721.375 128.168 720.495 128.168C719.615 128.168 718.863 127.864 718.255 127.256ZM729.915 124.84L734.043 121H732.603L728.795 124.536V117.8H727.739V129H728.795V125.144L732.795 129H734.203L729.915 124.84ZM742.528 122.568C741.792 121.4 740.72 120.808 739.296 120.808C738.16 120.808 737.184 121.208 736.368 122.024C735.568 122.84 735.168 123.832 735.168 125C735.168 126.168 735.568 127.16 736.368 127.976C737.184 128.792 738.16 129.192 739.296 129.192C740.72 129.192 741.792 128.6 742.528 127.432V129H743.584V121H742.528V122.568ZM737.136 127.256C736.528 126.632 736.224 125.88 736.224 125C736.224 124.12 736.528 123.368 737.136 122.76C737.744 122.136 738.496 121.832 739.376 121.832C740.256 121.832 741.008 122.136 741.616 122.76C742.224 123.368 742.528 124.12 742.528 125C742.528 125.88 742.224 126.632 741.616 127.256C741.008 127.864 740.256 128.168 739.376 128.168C738.496 128.168 737.744 127.864 737.136 127.256ZM750.364 120.808C749.164 120.808 748.268 121.288 747.676 122.248V121H746.62V129H747.676V124.808C747.676 122.776 748.732 121.832 750.268 121.832C751.66 121.832 752.444 122.664 752.444 124.088V129H753.5V124.088C753.5 122.088 752.3 120.808 750.364 120.808ZM763.222 122.568C762.486 121.4 761.414 120.808 759.99 120.808C758.854 120.808 757.878 121.208 757.062 122.024C756.262 122.84 755.862 123.832 755.862 125C755.862 126.168 756.262 127.16 757.062 127.976C757.878 128.792 758.854 129.192 759.99 129.192C761.414 129.192 762.486 128.6 763.222 127.432V129H764.278V121H763.222V122.568ZM757.83 127.256C757.222 126.632 756.918 125.88 756.918 125C756.918 124.12 757.222 123.368 757.83 122.76C758.438 122.136 759.19 121.832 760.07 121.832C760.95 121.832 761.702 122.136 762.31 122.76C762.918 123.368 763.222 124.12 763.222 125C763.222 125.88 762.918 126.632 762.31 127.256C761.702 127.864 760.95 128.168 760.07 128.168C759.19 128.168 758.438 127.864 757.83 127.256ZM779.474 122.712H773.394V117.8H772.274V129H773.394V123.768H779.474V129H780.594V117.8H779.474V122.712ZM790.493 127.992C791.309 127.176 791.725 126.184 791.725 125C791.725 123.816 791.309 122.824 790.493 122.024C789.677 121.208 788.685 120.808 787.517 120.808C786.349 120.808 785.341 121.208 784.525 122.024C783.709 122.824 783.309 123.816 783.309 125C783.309 126.184 783.709 127.176 784.525 127.992C785.341 128.792 786.349 129.192 787.517 129.192C788.685 129.192 789.677 128.792 790.493 127.992ZM785.277 127.256C784.669 126.632 784.365 125.88 784.365 125C784.365 124.12 784.669 123.368 785.277 122.76C785.885 122.136 786.637 121.832 787.517 121.832C788.397 121.832 789.149 122.136 789.757 122.76C790.365 123.368 790.669 124.12 790.669 125C790.669 125.88 790.365 126.632 789.757 127.256C789.149 127.864 788.397 128.168 787.517 128.168C786.637 128.168 785.885 127.864 785.277 127.256ZM799.924 125.192C799.924 127.224 798.868 128.168 797.332 128.168C795.94 128.168 795.156 127.336 795.156 125.912V121H794.1V125.912C794.1 127.912 795.3 129.192 797.236 129.192C798.436 129.192 799.332 128.712 799.924 127.752V129H800.98V121H799.924V125.192ZM804.846 123.096C804.846 122.28 805.614 121.832 806.526 121.832C807.502 121.832 808.142 122.2 808.446 122.952L809.326 122.44C808.862 121.432 807.822 120.808 806.526 120.808C805.742 120.808 805.086 121.032 804.558 121.464C804.046 121.896 803.79 122.44 803.79 123.096C803.79 124.824 805.47 125.192 806.814 125.528C807.726 125.768 808.462 126.168 808.462 126.888C808.462 127.768 807.662 128.168 806.622 128.168C805.55 128.168 804.734 127.656 804.43 126.824L803.534 127.352C803.966 128.44 805.086 129.192 806.622 129.192C807.47 129.192 808.174 128.984 808.702 128.552C809.246 128.12 809.518 127.576 809.518 126.888C809.518 125.16 807.838 124.792 806.494 124.456C805.582 124.216 804.846 123.816 804.846 123.096ZM813.073 119.08C813.377 118.776 813.377 118.296 813.073 117.992C812.769 117.688 812.289 117.688 811.985 117.992C811.681 118.296 811.681 118.776 811.985 119.08C812.289 119.384 812.769 119.384 813.073 119.08ZM813.057 129V121H812.001V129H813.057ZM819.842 120.808C818.642 120.808 817.746 121.288 817.154 122.248V121H816.098V129H817.154V124.808C817.154 122.776 818.21 121.832 819.746 121.832C821.138 121.832 821.922 122.664 821.922 124.088V129H822.978V124.088C822.978 122.088 821.778 120.808 819.842 120.808ZM832.7 122.568C831.964 121.4 830.892 120.808 829.468 120.808C828.332 120.808 827.356 121.208 826.54 122.024C825.74 122.84 825.34 123.832 825.34 125C825.34 126.168 825.74 127.16 826.54 127.976C827.356 128.792 828.332 129.192 829.468 129.192C830.892 129.192 831.964 128.6 832.7 127.432V128.68C832.7 130.328 831.58 131.368 829.74 131.368C828.316 131.368 827.356 130.888 826.876 129.912L825.948 130.44C826.604 131.736 827.868 132.392 829.74 132.392C830.844 132.392 831.788 132.056 832.572 131.4C833.356 130.744 833.756 129.832 833.756 128.68V121H832.7V122.568ZM827.308 127.256C826.7 126.632 826.396 125.88 826.396 125C826.396 124.12 826.7 123.368 827.308 122.76C827.916 122.136 828.668 121.832 829.548 121.832C830.428 121.832 831.18 122.136 831.788 122.76C832.396 123.368 832.7 124.12 832.7 125C832.7 125.88 832.396 126.632 831.788 127.256C831.18 127.864 830.428 128.168 829.548 128.168C828.668 128.168 827.916 127.864 827.308 127.256ZM842.872 123.88H847.832V122.824H842.872V118.856H848.232V117.8H841.752V129H848.312V127.944H842.872V123.88ZM851.708 123.096C851.708 122.28 852.476 121.832 853.388 121.832C854.364 121.832 855.004 122.2 855.308 122.952L856.188 122.44C855.724 121.432 854.684 120.808 853.388 120.808C852.604 120.808 851.948 121.032 851.42 121.464C850.908 121.896 850.652 122.44 850.652 123.096C850.652 124.824 852.332 125.192 853.676 125.528C854.588 125.768 855.324 126.168 855.324 126.888C855.324 127.768 854.524 128.168 853.484 128.168C852.412 128.168 851.596 127.656 851.292 126.824L850.396 127.352C850.828 128.44 851.948 129.192 853.484 129.192C854.332 129.192 855.036 128.984 855.564 128.552C856.108 128.12 856.38 127.576 856.38 126.888C856.38 125.16 854.7 124.792 853.356 124.456C852.444 124.216 851.708 123.816 851.708 123.096ZM862.869 121H860.565V118.76L859.509 119.08V121H857.829V122.024H859.509V126.872C859.509 128.728 860.629 129.336 862.869 129V128.072C861.333 128.136 860.565 128.248 860.565 126.872V122.024H862.869V121ZM871.825 122.568C871.089 121.4 870.017 120.808 868.593 120.808C867.457 120.808 866.481 121.208 865.665 122.024C864.865 122.84 864.465 123.832 864.465 125C864.465 126.168 864.865 127.16 865.665 127.976C866.481 128.792 867.457 129.192 868.593 129.192C870.017 129.192 871.089 128.6 871.825 127.432V129H872.881V121H871.825V122.568ZM866.433 127.256C865.825 126.632 865.521 125.88 865.521 125C865.521 124.12 865.825 123.368 866.433 122.76C867.041 122.136 867.793 121.832 868.673 121.832C869.553 121.832 870.305 122.136 870.913 122.76C871.521 123.368 871.825 124.12 871.825 125C871.825 125.88 871.521 126.632 870.913 127.256C870.305 127.864 869.553 128.168 868.673 128.168C867.793 128.168 867.041 127.864 866.433 127.256ZM880.157 121H877.853V118.76L876.797 119.08V121H875.117V122.024H876.797V126.872C876.797 128.728 877.917 129.336 880.157 129V128.072C878.621 128.136 877.853 128.248 877.853 126.872V122.024H880.157V121ZM885.929 120.808C884.697 120.808 883.705 121.208 882.921 122.008C882.137 122.808 881.753 123.8 881.753 125C881.753 126.216 882.153 127.224 882.937 128.008C883.721 128.792 884.745 129.192 886.009 129.192C887.561 129.192 888.825 128.488 889.529 127.352L888.601 126.808C888.153 127.624 887.241 128.168 886.025 128.168C884.313 128.168 883.049 127.144 882.841 125.528H889.865C889.881 125.32 889.897 125.144 889.897 125.032C889.897 123.896 889.529 122.904 888.793 122.072C888.073 121.224 887.113 120.808 885.929 120.808ZM885.929 121.832C886.649 121.832 887.289 122.072 887.833 122.536C888.377 123 888.697 123.656 888.809 124.504H882.841C883.049 122.92 884.265 121.832 885.929 121.832Z" fill="white"/>
</g>
</g>
</g>
<defs>
<linearGradient id="paint0_linear" x1="10.5" y1="274.5" x2="937" y2="274" gradientUnits="userSpaceOnUse">
<stop stop-color="#1F3F68"/>
<stop offset="0.998233" stop-color="#1F3F68" stop-opacity="0.37"/>
</linearGradient>
</defs>
</svg>
